<?xml version="1.0" encoding="us-ascii" standalone="no"?><svg xmlns="http://www.w3.org/2000/svg" xmlns:xlink="http://www.w3.org/1999/xlink" contentStyleType="text/css" height="434px" preserveAspectRatio="none" style="width:605px;height:434px;background:#FFFFFF;" version="1.1" viewBox="0 0 605 434" width="605px" zoomAndPan="magnify"><defs/><g><text fill="#000000" font-family="sans-serif" font-size="14" font-weight="bold" lengthAdjust="spacing" textLength="179" x="203" y="23.5352">BufferPool &#25968;&#25454;&#32467;&#26500;&#31034;&#24847;&#22270;</text><path d="M167.5,44.4883 L326.5,44.4883 A12.5,12.5 0 0 1 339,56.9883 L339,70.9766 L155,70.9766 L155,56.9883 A12.5,12.5 0 0 1 167.5,44.4883 " fill="#F1F1F1" style="stroke:#F1F1F1;stroke-width:1.0;"/><rect fill="none" height="88.4883" rx="12.5" ry="12.5" style="stroke:#181818;stroke-width:0.5;" width="184" x="155" y="44.4883"/><line style="stroke:#181818;stroke-width:0.5;" x1="155" x2="339" y1="70.9766" y2="70.9766"/><text fill="#000000" font-family="sans-serif" font-size="14" lengthAdjust="spacing" textLength="86" x="204" y="63.0234">capacity:512</text><rect fill="#F1F1F1" height="40" rx="12.5" ry="12.5" style="stroke:#181818;stroke-width:0.5;" width="73" x="167" y="82.9766"/><text fill="#000000" font-family="sans-serif" font-size="14" lengthAdjust="spacing" textLength="63" x="172" y="108.2676">512bytes</text><rect fill="#F1F1F1" height="40" rx="12.5" ry="12.5" style="stroke:#181818;stroke-width:0.5;" width="73" x="258" y="82.9766"/><text fill="#000000" font-family="sans-serif" font-size="14" lengthAdjust="spacing" textLength="63" x="263" y="108.2676">512bytes</text><!--link 1_1 to 1_2--><g id="link_1_1_1_2"><path d="M240.1133,102.9766 C244.3888,102.9766 248.6643,102.9766 252.9398,102.9766 " fill="none" id="1_1-to-1_2" style="stroke:#181818;stroke-width:1.0;"/><polygon fill="#181818" points="257.9589,102.9766,248.9589,98.9766,252.9589,102.9766,248.9589,106.9766,257.9589,102.9766" style="stroke:#181818;stroke-width:1.0;"/></g><path d="M19.5,192.4883 L186.5,192.4883 A12.5,12.5 0 0 1 199,204.9883 L199,218.9766 L7,218.9766 L7,204.9883 A12.5,12.5 0 0 1 19.5,192.4883 " fill="#F1F1F1" style="stroke:#F1F1F1;stroke-width:1.0;"/><rect fill="none" height="88.4883" rx="12.5" ry="12.5" style="stroke:#181818;stroke-width:0.5;" width="192" x="7" y="192.4883"/><line style="stroke:#181818;stroke-width:0.5;" x1="7" x2="199" y1="218.9766" y2="218.9766"/><text fill="#000000" font-family="sans-serif" font-size="14" lengthAdjust="spacing" textLength="86" x="60" y="211.0234">capacity:256</text><rect fill="#F1F1F1" height="40" rx="12.5" ry="12.5" style="stroke:#181818;stroke-width:0.5;" width="77" x="19" y="230.9766"/><text fill="#000000" font-family="sans-serif" font-size="14" lengthAdjust="spacing" textLength="67" x="24" y="256.2676">256 bytes</text><rect fill="#F1F1F1" height="40" rx="12.5" ry="12.5" style="stroke:#181818;stroke-width:0.5;" width="77" x="114" y="230.9766"/><text fill="#000000" font-family="sans-serif" font-size="14" lengthAdjust="spacing" textLength="67" x="119" y="256.2676">256 bytes</text><!--link 2_1 to 2_2--><g id="link_2_1_2_2"><path d="M96.0938,250.9766 C100.2251,250.9766 104.3564,250.9766 108.4877,250.9766 " fill="none" id="2_1-to-2_2" style="stroke:#181818;stroke-width:1.0;"/><polygon fill="#181818" points="113.7207,250.9766,104.7207,246.9766,108.7207,250.9766,104.7207,254.9766,113.7207,250.9766" style="stroke:#181818;stroke-width:1.0;"/></g><path d="M246.5,192.4883 L535.5,192.4883 A12.5,12.5 0 0 1 548,204.9883 L548,218.9766 L234,218.9766 L234,204.9883 A12.5,12.5 0 0 1 246.5,192.4883 " fill="#F1F1F1" style="stroke:#F1F1F1;stroke-width:1.0;"/><rect fill="none" height="88.4883" rx="12.5" ry="12.5" style="stroke:#181818;stroke-width:0.5;" width="314" x="234" y="192.4883"/><line style="stroke:#181818;stroke-width:0.5;" x1="234" x2="548" y1="218.9766" y2="218.9766"/><text fill="#000000" font-family="sans-serif" font-size="14" lengthAdjust="spacing" textLength="95" x="343.5" y="211.0234">capacity:1024</text><rect fill="#F1F1F1" height="40" rx="12.5" ry="12.5" style="stroke:#181818;stroke-width:0.5;" width="86" x="246" y="230.9766"/><text fill="#000000" font-family="sans-serif" font-size="14" lengthAdjust="spacing" textLength="76" x="251" y="256.2676">1024 bytes</text><rect fill="#F1F1F1" height="40" rx="12.5" ry="12.5" style="stroke:#181818;stroke-width:0.5;" width="86" x="350" y="230.9766"/><text fill="#000000" font-family="sans-serif" font-size="14" lengthAdjust="spacing" textLength="76" x="355" y="256.2676">1024 bytes</text><rect fill="#F1F1F1" height="40" rx="12.5" ry="12.5" style="stroke:#181818;stroke-width:0.5;" width="86" x="454" y="230.9766"/><text fill="#000000" font-family="sans-serif" font-size="14" lengthAdjust="spacing" textLength="76" x="459" y="256.2676">1024 bytes</text><!--link 3_1 to 3_2--><g id="link_3_1_3_2"><path d="M332.0625,250.9766 C336.191,250.9766 340.3194,250.9766 344.4479,250.9766 " fill="none" id="3_1-to-3_2" style="stroke:#181818;stroke-width:1.0;"/><polygon fill="#181818" points="349.6772,250.9766,340.6772,246.9766,344.6772,250.9766,340.6772,254.9766,349.6772,250.9766" style="stroke:#181818;stroke-width:1.0;"/></g><!--link 3_2 to 3_3--><g id="link_3_2_3_3"><path d="M436.0625,250.9766 C440.191,250.9766 444.3194,250.9766 448.4479,250.9766 " fill="none" id="3_2-to-3_3" style="stroke:#181818;stroke-width:1.0;"/><polygon fill="#181818" points="453.6772,250.9766,444.6772,246.9766,448.6772,250.9766,444.6772,254.9766,453.6772,250.9766" style="stroke:#181818;stroke-width:1.0;"/></g><path d="M253.5,340.4883 L334.5,340.4883 A12.5,12.5 0 0 1 347,352.9883 L347,366.9766 L241,366.9766 L241,352.9883 A12.5,12.5 0 0 1 253.5,340.4883 " fill="#F1F1F1" style="stroke:#F1F1F1;stroke-width:1.0;"/><rect fill="none" height="88.4883" rx="12.5" ry="12.5" style="stroke:#181818;stroke-width:0.5;" width="106" x="241" y="340.4883"/><line style="stroke:#181818;stroke-width:0.5;" x1="241" x2="347" y1="366.9766" y2="366.9766"/><text fill="#000000" font-family="sans-serif" font-size="14" lengthAdjust="spacing" textLength="86" x="251" y="359.0234">capacity:768</text><rect fill="#F1F1F1" height="40" rx="12.5" ry="12.5" style="stroke:#181818;stroke-width:0.5;" width="77" x="253" y="378.9766"/><text fill="#000000" font-family="sans-serif" font-size="14" lengthAdjust="spacing" textLength="67" x="258" y="404.2676">768 bytes</text><path d="M394.5,340.4883 L579.5,340.4883 A12.5,12.5 0 0 1 592,352.9883 L592,366.9766 L382,366.9766 L382,352.9883 A12.5,12.5 0 0 1 394.5,340.4883 " fill="#F1F1F1" style="stroke:#F1F1F1;stroke-width:1.0;"/><rect fill="none" height="88.4883" rx="12.5" ry="12.5" style="stroke:#181818;stroke-width:0.5;" width="210" x="382" y="340.4883"/><line style="stroke:#181818;stroke-width:0.5;" x1="382" x2="592" y1="366.9766" y2="366.9766"/><text fill="#000000" font-family="sans-serif" font-size="14" lengthAdjust="spacing" textLength="95" x="439.5" y="359.0234">capacity:2048</text><rect fill="#F1F1F1" height="40" rx="12.5" ry="12.5" style="stroke:#181818;stroke-width:0.5;" width="86" x="394" y="378.9766"/><text fill="#000000" font-family="sans-serif" font-size="14" lengthAdjust="spacing" textLength="76" x="399" y="404.2676">2048 bytes</text><rect fill="#F1F1F1" height="40" rx="12.5" ry="12.5" style="stroke:#181818;stroke-width:0.5;" width="86" x="498" y="378.9766"/><text fill="#000000" font-family="sans-serif" font-size="14" lengthAdjust="spacing" textLength="76" x="503" y="404.2676">2048 bytes</text><!--link 5_1 to 5_2--><g id="link_5_1_5_2"><path d="M480.0625,398.9766 C484.191,398.9766 488.3194,398.9766 492.4479,398.9766 " fill="none" id="5_1-to-5_2" style="stroke:#181818;stroke-width:1.0;"/><polygon fill="#181818" points="497.6772,398.9766,488.6772,394.9766,492.6772,398.9766,488.6772,402.9766,497.6772,398.9766" style="stroke:#181818;stroke-width:1.0;"/></g><!--link 3 to 5--><g id="link_3_5"><path d="M419.5432,280.4925 C430.8546,297.9308 443.9011,318.0442 455.4884,335.908 " fill="none" id="3-to-5" style="stroke:#181818;stroke-width:1.0;"/><polygon fill="#181818" points="458.401,340.3981,456.8591,330.6707,455.68,336.2033,450.1474,335.0242,458.401,340.3981" style="stroke:#181818;stroke-width:1.0;"/></g><!--link 1 to 2--><g id="link_1_2"><path d="M204.1851,132.4925 C186.9306,150.2263 166.9842,170.7268 149.3855,188.8143 " fill="none" id="1-to-2" style="stroke:#181818;stroke-width:1.0;"/><polygon fill="#181818" points="145.8986,192.3981,155.0417,188.737,149.3854,188.8144,149.3079,183.1581,145.8986,192.3981" style="stroke:#181818;stroke-width:1.0;"/></g><!--link 1 to 3--><g id="link_1_3"><path d="M289.8149,132.4925 C307.0694,150.2263 327.0158,170.7268 344.6145,188.8143 " fill="none" id="1-to-3" style="stroke:#181818;stroke-width:1.0;"/><polygon fill="#181818" points="348.1014,192.3981,344.6921,183.1581,344.6146,188.8144,338.9583,188.737,348.1014,192.3981" style="stroke:#181818;stroke-width:1.0;"/></g><!--link 3 to 4--><g id="link_3_4"><path d="M362.1594,280.4925 C350.7303,297.9308 337.5478,318.0442 325.8398,335.908 " fill="none" id="3-to-4" style="stroke:#181818;stroke-width:1.0;"/><polygon fill="#181818" points="322.8969,340.3981,331.1758,335.0633,325.6377,336.2162,324.4848,330.6781,322.8969,340.3981" style="stroke:#181818;stroke-width:1.0;"/></g><!--SRC=[RP0nRi9044NxESN8lIKykqiY2WfEa1iWOnPb9H9RzgQm41qjeeXIHKgLEagTIBbDp3Kow-o2RN1XZ_xp__CrzsQfKJyKjiQbhhBI5DRaZs2DNMkSFQrMkhpBypKsBv_D_kFu_ToyxOxlNytkyFlw0r3Pr6fCCAqmoj8YpOoj9ogX23U0_7W-__-3mQAskefwZAumTiHJHh3rAwY_WjGuuWsU-NWMCMG4GXU4N3HreaK_EXcHF6SBd-tKGRZmuLUHk4J2BMQJcyXDWYlu3hBVuMPyUwuWVGKMGzR9fmPd6ScEKOMxi3eegC9XEWYS8PwgzZGWOXu18E4ljM_HQXB-0000]--></g></svg>