<?xml version="1.0" encoding="us-ascii" standalone="no"?><svg xmlns="http://www.w3.org/2000/svg" xmlns:xlink="http://www.w3.org/1999/xlink" contentStyleType="text/css" height="480px" preserveAspectRatio="none" style="width:1036px;height:480px;background:#FFFFFF;" version="1.1" viewBox="0 0 1036 480" width="1036px" zoomAndPan="magnify"><defs/><g><text fill="#000000" font-family="sans-serif" font-size="14" font-weight="bold" lengthAdjust="spacing" textLength="189" x="416.75" y="23.5352">ChannelHandler &#30340;&#25509;&#21475;&#23450;&#20041;</text><!--class ChannelHandler--><g id="elem_ChannelHandler"><rect codeLine="4" fill="#F1F1F1" height="221.3711" id="ChannelHandler" rx="2.5" ry="2.5" style="stroke:#181818;stroke-width:0.5;" width="402" x="313.5" y="44.4883"/><ellipse cx="454.75" cy="60.4883" fill="#B4A7E5" rx="11" ry="11" style="stroke:#181818;stroke-width:1.0;"/><path d="M451.1777,56.7534 L451.1777,54.5952 L458.5571,54.5952 L458.5571,56.7534 L456.0918,56.7534 L456.0918,64.8301 L458.5571,64.8301 L458.5571,66.9883 L451.1777,66.9883 L451.1777,64.8301 L453.6431,64.8301 L453.6431,56.7534 Z " fill="#000000"/><text fill="#000000" font-family="sans-serif" font-size="14" font-style="italic" lengthAdjust="spacing" textLength="111" x="475.25" y="65.7793">ChannelHandler</text><line style="stroke:#181818;stroke-width:0.5;" x1="314.5" x2="714.5" y1="76.4883" y2="76.4883"/><text fill="#000000" font-family="sans-serif" font-size="14" lengthAdjust="spacing" textLength="390" x="319.5" y="94.0234">exceptionCaught(ChannelContext context, Throwable t);</text><text fill="#000000" font-family="sans-serif" font-size="14" lengthAdjust="spacing" textLength="4" x="319.5" y="110.5117">&#160;</text><text fill="#000000" font-family="sans-serif" font-size="14" lengthAdjust="spacing" textLength="258" x="319.5" y="127">onInitialize(ChannelContext context);</text><text fill="#000000" font-family="sans-serif" font-size="14" lengthAdjust="spacing" textLength="4" x="319.5" y="143.4883">&#160;</text><text fill="#000000" font-family="sans-serif" font-size="14" lengthAdjust="spacing" textLength="252" x="319.5" y="159.9766">onDestroy(ChannelContext context);</text><text fill="#000000" font-family="sans-serif" font-size="14" lengthAdjust="spacing" textLength="4" x="319.5" y="176.4648">&#160;</text><text fill="#000000" font-family="sans-serif" font-size="14" lengthAdjust="spacing" textLength="274" x="319.5" y="192.9531">onConnected(ChannelContext context);</text><text fill="#000000" font-family="sans-serif" font-size="14" lengthAdjust="spacing" textLength="4" x="319.5" y="209.4414">&#160;</text><text fill="#000000" font-family="sans-serif" font-size="14" lengthAdjust="spacing" textLength="309" x="319.5" y="225.9297">onReadCompleted(ChannelContext context);</text><text fill="#000000" font-family="sans-serif" font-size="14" lengthAdjust="spacing" textLength="4" x="319.5" y="242.418">&#160;</text><text fill="#000000" font-family="sans-serif" font-size="14" lengthAdjust="spacing" textLength="247" x="319.5" y="258.9063">onClosed(ChannelContext context);</text></g><!--class InboundChannelHandler--><g id="elem_InboundChannelHandler"><rect codeLine="18" fill="#F1F1F1" height="56.4883" id="InboundChannelHandler" rx="2.5" ry="2.5" style="stroke:#181818;stroke-width:0.5;" width="487" x="7" y="325.4883"/><ellipse cx="161.75" cy="341.4883" fill="#B4A7E5" rx="11" ry="11" style="stroke:#181818;stroke-width:1.0;"/><path d="M158.1777,337.7534 L158.1777,335.5952 L165.5571,335.5952 L165.5571,337.7534 L163.0918,337.7534 L163.0918,345.8301 L165.5571,345.8301 L165.5571,347.9883 L158.1777,347.9883 L158.1777,345.8301 L160.6431,345.8301 L160.6431,337.7534 Z " fill="#000000"/><text fill="#000000" font-family="sans-serif" font-size="14" font-style="italic" lengthAdjust="spacing" textLength="169" x="182.25" y="346.7793">InboundChannelHandler</text><line style="stroke:#181818;stroke-width:0.5;" x1="8" x2="493" y1="357.4883" y2="357.4883"/><text fill="#000000" font-family="sans-serif" font-size="14" lengthAdjust="spacing" textLength="475" x="13" y="375.0234">onRead(ChannelContext context, Object data, InboundPipeline next);</text></g><!--class OutboundChannelHandler--><g id="elem_OutboundChannelHandler"><rect codeLine="22" fill="#F1F1F1" height="56.4883" id="OutboundChannelHandler" rx="2.5" ry="2.5" style="stroke:#181818;stroke-width:0.5;" width="500" x="529.5" y="325.4883"/><ellipse cx="684.75" cy="341.4883" fill="#B4A7E5" rx="11" ry="11" style="stroke:#181818;stroke-width:1.0;"/><path d="M681.1777,337.7534 L681.1777,335.5952 L688.5571,335.5952 L688.5571,337.7534 L686.0918,337.7534 L686.0918,345.8301 L688.5571,345.8301 L688.5571,347.9883 L681.1777,347.9883 L681.1777,345.8301 L683.6431,345.8301 L683.6431,337.7534 Z " fill="#000000"/><text fill="#000000" font-family="sans-serif" font-size="14" font-style="italic" lengthAdjust="spacing" textLength="181" x="705.25" y="346.7793">OutboundChannelHandler</text><line style="stroke:#181818;stroke-width:0.5;" x1="530.5" x2="1028.5" y1="357.4883" y2="357.4883"/><text fill="#000000" font-family="sans-serif" font-size="14" lengthAdjust="spacing" textLength="488" x="535.5" y="375.0234">onWrite(ChannelContext context, Object data, OutboundPipeline next);</text></g><!--class DuplexChannelHandler--><g id="elem_DuplexChannelHandler"><rect codeLine="26" fill="#F1F1F1" height="32" id="DuplexChannelHandler" rx="2.5" ry="2.5" style="stroke:#181818;stroke-width:0.5;" width="192" x="418.5" y="441.4883"/><ellipse cx="433.5" cy="457.4883" fill="#B4A7E5" rx="11" ry="11" style="stroke:#181818;stroke-width:1.0;"/><path d="M429.9277,453.7534 L429.9277,451.5952 L437.3071,451.5952 L437.3071,453.7534 L434.8418,453.7534 L434.8418,461.8301 L437.3071,461.8301 L437.3071,463.9883 L429.9277,463.9883 L429.9277,461.8301 L432.3931,461.8301 L432.3931,453.7534 Z " fill="#000000"/><text fill="#000000" font-family="sans-serif" font-size="14" font-style="italic" lengthAdjust="spacing" textLength="160" x="447.5" y="462.7793">DuplexChannelHandler</text></g><!--reverse link InboundChannelHandler to DuplexChannelHandler--><g id="link_InboundChannelHandler_DuplexChannelHandler"><path d="M340.4567,388.9258 C385.6858,406.7433 438.2684,427.4577 473.7006,441.4158 " fill="none" id="InboundChannelHandler-backto-DuplexChannelHandler" style="stroke:#181818;stroke-width:1.0;"/><polygon fill="none" points="337.6369,395.3386,321.5944,381.4952,342.7683,382.3129,337.6369,395.3386" style="stroke:#181818;stroke-width:1.0;"/></g><!--reverse link OutboundChannelHandler to DuplexChannelHandler--><g id="link_OutboundChannelHandler_DuplexChannelHandler"><path d="M689.5065,388.8065 C644.0378,406.6508 591.0998,427.4265 555.454,441.4158 " fill="none" id="OutboundChannelHandler-backto-DuplexChannelHandler" style="stroke:#181818;stroke-width:1.0;"/><polygon fill="none" points="686.9614,382.2856,708.1363,381.4952,692.076,395.3179,686.9614,382.2856" style="stroke:#181818;stroke-width:1.0;"/></g><!--reverse link ChannelHandler to InboundChannelHandler--><g id="link_ChannelHandler_InboundChannelHandler"><path codeLine="30" d="M351.2855,277.7083 C327.594,295.5218 305.3256,312.2653 287.7768,325.4601 " fill="none" id="ChannelHandler-backto-InboundChannelHandler" style="stroke:#181818;stroke-width:1.0;"/><polygon fill="none" points="347.2549,271.9809,367.4471,265.5565,355.6685,283.1708,347.2549,271.9809" style="stroke:#181818;stroke-width:1.0;"/></g><!--reverse link ChannelHandler to OutboundChannelHandler--><g id="link_ChannelHandler_OutboundChannelHandler"><path codeLine="31" d="M678.3328,277.7083 C702.114,295.5218 724.4667,312.2653 742.082,325.4601 " fill="none" id="ChannelHandler-backto-OutboundChannelHandler" style="stroke:#181818;stroke-width:1.0;"/><polygon fill="none" points="673.9205,283.1494,662.1099,265.5565,682.3138,271.9443,673.9205,283.1494" style="stroke:#181818;stroke-width:1.0;"/></g><!--SRC=[ZP8zJiGm48Lxdy8bIDaJGESjs6eHGg9suWSnSiQHCn5PVZeQ6kYtHRJqt8U5Qs0KLc8Z9r2DDFFDU-CdbzP0egfv9IjKEK8ZsBA3LAKcWZlIP1o2_5pVVpo-R9wUDw_hzxS78ImnmhakXkIDG5UWPkj9wVQYvBsVkV9nesDPz3MJfsNmLpgFNhn_88Id1LcssjbhZEpqs1mD1x-QP6AJK33C97K2RPIlQeU_IELyCuNS_GvaGRbloGnpaRtXQ1xB_3AUB8rcdMqrZcqDPmcI4ZxBbiUCpe9b_Czfgp9fDMzZIDtWJqGEP9hqUxEnwxw5Ttk7jxDPKYF1fLM_0000]--></g></svg>