<?xml version="1.0" encoding="us-ascii" standalone="no"?><svg xmlns="http://www.w3.org/2000/svg" xmlns:xlink="http://www.w3.org/1999/xlink" contentStyleType="text/css" height="626px" preserveAspectRatio="none" style="width:599px;height:626px;background:#FFFFFF;" version="1.1" viewBox="0 0 599 626" width="599px" zoomAndPan="magnify"><defs/><g><rect fill="#FFFFFF" height="71.6211" style="stroke:#181818;stroke-width:1.0;" width="10" x="79" y="92.1094"/><rect fill="#FFFFFF" height="35.3105" style="stroke:#181818;stroke-width:1.0;" width="10" x="79" y="427.9043"/><rect fill="#FFFFFF" height="35.3105" style="stroke:#181818;stroke-width:1.0;" width="10" x="79" y="523.8359"/><rect fill="#FFFFFF" height="120.9316" style="stroke:#181818;stroke-width:1.0;" width="10" x="290" y="163.7305"/><rect fill="#FFFFFF" height="71.6211" style="stroke:#181818;stroke-width:1.0;" width="10" x="290" y="356.2832"/><rect fill="#FFFFFF" height="71.6211" style="stroke:#181818;stroke-width:1.0;" width="10" x="474" y="284.6621"/><rect fill="none" height="160.5527" style="stroke:#000000;stroke-width:1.5;" width="426" x="3" y="53.4883"/><rect fill="none" height="88.9316" style="stroke:#000000;stroke-width:1.5;" width="292" x="3" y="485.2148"/><line style="stroke:#181818;stroke-width:0.5;stroke-dasharray:5.0,5.0;" x1="83.5" x2="83.5" y1="36.4883" y2="591.1465"/><line style="stroke:#181818;stroke-width:0.5;stroke-dasharray:5.0,5.0;" x1="295" x2="295" y1="36.4883" y2="591.1465"/><line style="stroke:#181818;stroke-width:0.5;stroke-dasharray:5.0,5.0;" x1="479" x2="479" y1="36.4883" y2="591.1465"/><rect fill="#E2E2F0" height="30.4883" rx="2.5" ry="2.5" style="stroke:#181818;stroke-width:0.5;" width="105" x="31.5" y="5"/><text fill="#000000" font-family="sans-serif" font-size="14" lengthAdjust="spacing" textLength="91" x="38.5" y="25.5352">EventHandler</text><rect fill="#E2E2F0" height="30.4883" rx="2.5" ry="2.5" style="stroke:#181818;stroke-width:0.5;" width="105" x="31.5" y="590.1465"/><text fill="#000000" font-family="sans-serif" font-size="14" lengthAdjust="spacing" textLength="91" x="38.5" y="610.6816">EventHandler</text><rect fill="#E2E2F0" height="30.4883" rx="2.5" ry="2.5" style="stroke:#181818;stroke-width:0.5;" width="134" x="228" y="5"/><text fill="#000000" font-family="sans-serif" font-size="14" lengthAdjust="spacing" textLength="120" x="235" y="25.5352">ChannelHandler1</text><rect fill="#E2E2F0" height="30.4883" rx="2.5" ry="2.5" style="stroke:#181818;stroke-width:0.5;" width="134" x="228" y="590.1465"/><text fill="#000000" font-family="sans-serif" font-size="14" lengthAdjust="spacing" textLength="120" x="235" y="610.6816">ChannelHandler1</text><rect fill="#E2E2F0" height="30.4883" rx="2.5" ry="2.5" style="stroke:#181818;stroke-width:0.5;" width="134" x="412" y="5"/><text fill="#000000" font-family="sans-serif" font-size="14" lengthAdjust="spacing" textLength="120" x="419" y="25.5352">ChannelHandler2</text><rect fill="#E2E2F0" height="30.4883" rx="2.5" ry="2.5" style="stroke:#181818;stroke-width:0.5;" width="134" x="412" y="590.1465"/><text fill="#000000" font-family="sans-serif" font-size="14" lengthAdjust="spacing" textLength="120" x="419" y="610.6816">ChannelHandler2</text><rect fill="#FFFFFF" height="71.6211" style="stroke:#181818;stroke-width:1.0;" width="10" x="79" y="92.1094"/><rect fill="#FFFFFF" height="35.3105" style="stroke:#181818;stroke-width:1.0;" width="10" x="79" y="427.9043"/><rect fill="#FFFFFF" height="35.3105" style="stroke:#181818;stroke-width:1.0;" width="10" x="79" y="523.8359"/><rect fill="#FFFFFF" height="120.9316" style="stroke:#181818;stroke-width:1.0;" width="10" x="290" y="163.7305"/><rect fill="#FFFFFF" height="71.6211" style="stroke:#181818;stroke-width:1.0;" width="10" x="290" y="356.2832"/><rect fill="#FFFFFF" height="71.6211" style="stroke:#181818;stroke-width:1.0;" width="10" x="474" y="284.6621"/><path d="M3,53.4883 L77,53.4883 L77,60.7988 L67,70.7988 L3,70.7988 L3,53.4883 " fill="#EEEEEE" style="stroke:#000000;stroke-width:1.5;"/><rect fill="none" height="160.5527" style="stroke:#000000;stroke-width:1.5;" width="426" x="3" y="53.4883"/><text fill="#000000" font-family="sans-serif" font-size="13" font-weight="bold" lengthAdjust="spacing" textLength="29" x="18" y="67.0566">loop</text><polygon fill="#181818" points="67,88.1094,77,92.1094,67,96.1094,71,92.1094" style="stroke:#181818;stroke-width:1.0;"/><line style="stroke:#181818;stroke-width:1.0;stroke-dasharray:2.0,2.0;" x1="0" x2="73" y1="92.1094" y2="92.1094"/><text fill="#000000" font-family="sans-serif" font-size="13" lengthAdjust="spacing" textLength="53" x="7" y="87.3672">readable</text><line style="stroke:#181818;stroke-width:1.0;" x1="89" x2="131" y1="121.4199" y2="121.4199"/><line style="stroke:#181818;stroke-width:1.0;" x1="131" x2="131" y1="121.4199" y2="134.4199"/><line style="stroke:#181818;stroke-width:1.0;" x1="90" x2="131" y1="134.4199" y2="134.4199"/><polygon fill="#181818" points="100,130.4199,90,134.4199,100,138.4199,96,134.4199" style="stroke:#181818;stroke-width:1.0;"/><text fill="#000000" font-family="sans-serif" font-size="13" lengthAdjust="spacing" textLength="145" x="96" y="116.6777">read bytes from socket</text><polygon fill="#181818" points="278,159.7305,288,163.7305,278,167.7305,282,163.7305" style="stroke:#181818;stroke-width:1.0;"/><line style="stroke:#181818;stroke-width:1.0;" x1="84" x2="284" y1="163.7305" y2="163.7305"/><text fill="#000000" font-family="sans-serif" font-size="13" lengthAdjust="spacing" textLength="138" x="91" y="158.9883">pass bytes to pipeline</text><line style="stroke:#181818;stroke-width:1.0;" x1="300" x2="342" y1="193.041" y2="193.041"/><line style="stroke:#181818;stroke-width:1.0;" x1="342" x2="342" y1="193.041" y2="206.041"/><line style="stroke:#181818;stroke-width:1.0;" x1="301" x2="342" y1="206.041" y2="206.041"/><polygon fill="#181818" points="311,202.041,301,206.041,311,210.041,307,206.041" style="stroke:#181818;stroke-width:1.0;"/><text fill="#000000" font-family="sans-serif" font-size="13" lengthAdjust="spacing" textLength="110" x="307" y="188.2988">accumulate bytes</text><line style="stroke:#181818;stroke-width:1.0;" x1="300" x2="342" y1="242.3516" y2="242.3516"/><line style="stroke:#181818;stroke-width:1.0;" x1="342" x2="342" y1="242.3516" y2="255.3516"/><line style="stroke:#181818;stroke-width:1.0;" x1="301" x2="342" y1="255.3516" y2="255.3516"/><polygon fill="#181818" points="311,251.3516,301,255.3516,311,259.3516,307,255.3516" style="stroke:#181818;stroke-width:1.0;"/><text fill="#000000" font-family="sans-serif" font-size="13" lengthAdjust="spacing" textLength="160" x="307" y="237.6094">decode bytes as message</text><polygon fill="#181818" points="462,280.6621,472,284.6621,462,288.6621,466,284.6621" style="stroke:#181818;stroke-width:1.0;"/><line style="stroke:#181818;stroke-width:1.0;" x1="295" x2="468" y1="284.6621" y2="284.6621"/><text fill="#000000" font-family="sans-serif" font-size="13" lengthAdjust="spacing" textLength="88" x="302" y="279.9199">pass message</text><line style="stroke:#181818;stroke-width:1.0;" x1="484" x2="526" y1="313.9727" y2="313.9727"/><line style="stroke:#181818;stroke-width:1.0;" x1="526" x2="526" y1="313.9727" y2="326.9727"/><line style="stroke:#181818;stroke-width:1.0;" x1="485" x2="526" y1="326.9727" y2="326.9727"/><polygon fill="#181818" points="495,322.9727,485,326.9727,495,330.9727,491,326.9727" style="stroke:#181818;stroke-width:1.0;"/><text fill="#000000" font-family="sans-serif" font-size="13" lengthAdjust="spacing" textLength="101" x="491" y="309.2305">handle message</text><polygon fill="#181818" points="311,352.2832,301,356.2832,311,360.2832,307,356.2832" style="stroke:#181818;stroke-width:1.0;"/><line style="stroke:#181818;stroke-width:1.0;" x1="305" x2="478" y1="356.2832" y2="356.2832"/><text fill="#000000" font-family="sans-serif" font-size="13" lengthAdjust="spacing" textLength="90" x="317" y="351.541">write message</text><line style="stroke:#181818;stroke-width:1.0;" x1="300" x2="342" y1="385.5938" y2="385.5938"/><line style="stroke:#181818;stroke-width:1.0;" x1="342" x2="342" y1="385.5938" y2="398.5938"/><line style="stroke:#181818;stroke-width:1.0;" x1="301" x2="342" y1="398.5938" y2="398.5938"/><polygon fill="#181818" points="311,394.5938,301,398.5938,311,402.5938,307,398.5938" style="stroke:#181818;stroke-width:1.0;"/><text fill="#000000" font-family="sans-serif" font-size="13" lengthAdjust="spacing" textLength="160" x="307" y="380.8516">encode message as bytes</text><polygon fill="#181818" points="100,423.9043,90,427.9043,100,431.9043,96,427.9043" style="stroke:#181818;stroke-width:1.0;"/><line style="stroke:#181818;stroke-width:1.0;" x1="94" x2="294" y1="427.9043" y2="427.9043"/><text fill="#000000" font-family="sans-serif" font-size="13" lengthAdjust="spacing" textLength="67" x="106" y="423.1621">pass bytes</text><line style="stroke:#181818;stroke-width:1.0;" x1="89" x2="131" y1="462.2148" y2="462.2148"/><line style="stroke:#181818;stroke-width:1.0;" x1="131" x2="131" y1="462.2148" y2="475.2148"/><line style="stroke:#181818;stroke-width:1.0;" x1="84" x2="131" y1="475.2148" y2="475.2148"/><polygon fill="#181818" points="94,471.2148,84,475.2148,94,479.2148,90,475.2148" style="stroke:#181818;stroke-width:1.0;"/><text fill="#000000" font-family="sans-serif" font-size="13" lengthAdjust="spacing" textLength="141" x="96" y="457.4727">bytes pending to write</text><path d="M3,485.2148 L77,485.2148 L77,492.5254 L67,502.5254 L3,502.5254 L3,485.2148 " fill="#EEEEEE" style="stroke:#000000;stroke-width:1.5;"/><rect fill="none" height="88.9316" style="stroke:#000000;stroke-width:1.5;" width="292" x="3" y="485.2148"/><text fill="#000000" font-family="sans-serif" font-size="13" font-weight="bold" lengthAdjust="spacing" textLength="29" x="18" y="498.7832">loop</text><polygon fill="#181818" points="67,519.8359,77,523.8359,67,527.8359,71,523.8359" style="stroke:#181818;stroke-width:1.0;"/><line style="stroke:#181818;stroke-width:1.0;stroke-dasharray:2.0,2.0;" x1="0" x2="73" y1="523.8359" y2="523.8359"/><text fill="#000000" font-family="sans-serif" font-size="13" lengthAdjust="spacing" textLength="50" x="7" y="519.0938">writable</text><line style="stroke:#181818;stroke-width:1.0;" x1="89" x2="131" y1="558.1465" y2="558.1465"/><line style="stroke:#181818;stroke-width:1.0;" x1="131" x2="131" y1="558.1465" y2="571.1465"/><line style="stroke:#181818;stroke-width:1.0;" x1="84" x2="131" y1="571.1465" y2="571.1465"/><polygon fill="#181818" points="94,567.1465,84,571.1465,94,575.1465,90,571.1465" style="stroke:#181818;stroke-width:1.0;"/><text fill="#000000" font-family="sans-serif" font-size="13" lengthAdjust="spacing" textLength="187" x="96" y="553.4043">write pending bytes to socket</text><!--SRC=[RL4nRiCm3Dpv2iAx0KjZXYn1WVwX4oEnYH1P4YGbHN_VI9PZE_NAEnxlZe5YDie4SXa7f8JTnuDT_YIdBSSEmWeN5JzToJcsZI6s5Bb3aHs0zJu0VFNz4OS3HYPDPyj0Afi7PSO1XlxO43p_Paxu7Vs8oQiRvmAA0mPAgO7POp21hN4CcbSoYwG047MDbBgFTrjcTHdOwHdJhBnkys9zv9JemWMLxU0yMfrvIYzt9CXAljQqBxgi-Z_HPDwJa1kdanbsrKnZ5pkJNr6hMTA_MVbNufGcF6CQTobLLHTlFMq_KXZx7vaIp6AlzjjZjfgbs3y0]--></g></svg>