<?xml version="1.0" encoding="us-ascii" standalone="no"?><svg xmlns="http://www.w3.org/2000/svg" xmlns:xlink="http://www.w3.org/1999/xlink" contentStyleType="text/css" height="525px" preserveAspectRatio="none" style="width:1083px;height:525px;background:#FFFFFF;" version="1.1" viewBox="0 0 1083 525" width="1083px" zoomAndPan="magnify"><defs/><g><rect fill="none" height="88.9316" style="stroke:#000000;stroke-width:1.5;" width="301" x="10" y="98.4883"/><rect fill="none" height="75.9316" style="stroke:#000000;stroke-width:1.5;" width="572" x="93" y="201.4199"/><rect fill="none" height="46.6211" style="stroke:#000000;stroke-width:1.5;" width="293" x="520" y="291.3516"/><rect fill="none" height="75.9316" style="stroke:#000000;stroke-width:1.5;" width="422" x="655" y="351.9727"/><line style="stroke:#181818;stroke-width:0.5;stroke-dasharray:5.0,5.0;" x1="56" x2="56" y1="81.4883" y2="444.9043"/><line style="stroke:#181818;stroke-width:0.5;stroke-dasharray:5.0,5.0;" x1="202" x2="202" y1="81.4883" y2="444.9043"/><line style="stroke:#181818;stroke-width:0.5;stroke-dasharray:5.0,5.0;" x1="415" x2="415" y1="81.4883" y2="444.9043"/><line style="stroke:#181818;stroke-width:0.5;stroke-dasharray:5.0,5.0;" x1="592" x2="592" y1="81.4883" y2="444.9043"/><line style="stroke:#181818;stroke-width:0.5;stroke-dasharray:5.0,5.0;" x1="734" x2="734" y1="81.4883" y2="444.9043"/><line style="stroke:#181818;stroke-width:0.5;stroke-dasharray:5.0,5.0;" x1="883" x2="883" y1="81.4883" y2="444.9043"/><line style="stroke:#181818;stroke-width:0.5;stroke-dasharray:5.0,5.0;" x1="1015" x2="1015" y1="81.4883" y2="444.9043"/><text fill="#000000" font-family="sans-serif" font-size="14" lengthAdjust="spacing" textLength="67" x="20" y="78.5352">user code</text><ellipse cx="56.5" cy="13.5" fill="#E2E2F0" rx="8" ry="8" style="stroke:#181818;stroke-width:0.5;"/><path d="M56.5,21.5 L56.5,48.5 M43.5,29.5 L69.5,29.5 M56.5,48.5 L43.5,63.5 M56.5,48.5 L69.5,63.5 " fill="none" style="stroke:#181818;stroke-width:0.5;"/><text fill="#000000" font-family="sans-serif" font-size="14" lengthAdjust="spacing" textLength="67" x="20" y="457.4395">user code</text><ellipse cx="56.5" cy="468.8926" fill="#E2E2F0" rx="8" ry="8" style="stroke:#181818;stroke-width:0.5;"/><path d="M56.5,476.8926 L56.5,503.8926 M43.5,484.8926 L69.5,484.8926 M56.5,503.8926 L43.5,518.8926 M56.5,503.8926 L69.5,518.8926 " fill="none" style="stroke:#181818;stroke-width:0.5;"/><rect fill="#E2E2F0" height="30.4883" rx="2.5" ry="2.5" style="stroke:#181818;stroke-width:0.5;" width="198" x="103" y="50"/><text fill="#000000" font-family="sans-serif" font-size="14" lengthAdjust="spacing" textLength="184" x="110" y="70.5352">ChannelHandlerDispatcher</text><rect fill="#E2E2F0" height="30.4883" rx="2.5" ry="2.5" style="stroke:#181818;stroke-width:0.5;" width="198" x="103" y="443.9043"/><text fill="#000000" font-family="sans-serif" font-size="14" lengthAdjust="spacing" textLength="184" x="110" y="464.4395">ChannelHandlerDispatcher</text><rect fill="#E2E2F0" height="30.4883" rx="2.5" ry="2.5" style="stroke:#181818;stroke-width:0.5;" width="209" x="311" y="50"/><text fill="#000000" font-family="sans-serif" font-size="14" lengthAdjust="spacing" textLength="195" x="318" y="70.5352">OutboundPipelineInvocation</text><rect fill="#E2E2F0" height="30.4883" rx="2.5" ry="2.5" style="stroke:#181818;stroke-width:0.5;" width="209" x="311" y="443.9043"/><text fill="#000000" font-family="sans-serif" font-size="14" lengthAdjust="spacing" textLength="195" x="318" y="464.4395">OutboundPipelineInvocation</text><rect fill="#E2E2F0" height="30.4883" rx="2.5" ry="2.5" style="stroke:#181818;stroke-width:0.5;" width="125" x="530" y="50"/><text fill="#000000" font-family="sans-serif" font-size="14" lengthAdjust="spacing" textLength="111" x="537" y="70.5352">ChannelHandler</text><rect fill="#E2E2F0" height="30.4883" rx="2.5" ry="2.5" style="stroke:#181818;stroke-width:0.5;" width="125" x="530" y="443.9043"/><text fill="#000000" font-family="sans-serif" font-size="14" lengthAdjust="spacing" textLength="111" x="537" y="464.4395">ChannelHandler</text><rect fill="#E2E2F0" height="30.4883" rx="2.5" ry="2.5" style="stroke:#181818;stroke-width:0.5;" width="138" x="665" y="50"/><text fill="#000000" font-family="sans-serif" font-size="14" lengthAdjust="spacing" textLength="124" x="672" y="70.5352">OutboundPipeline</text><rect fill="#E2E2F0" height="30.4883" rx="2.5" ry="2.5" style="stroke:#181818;stroke-width:0.5;" width="138" x="665" y="443.9043"/><text fill="#000000" font-family="sans-serif" font-size="14" lengthAdjust="spacing" textLength="124" x="672" y="464.4395">OutboundPipeline</text><rect fill="#E2E2F0" height="30.4883" rx="2.5" ry="2.5" style="stroke:#181818;stroke-width:0.5;" width="141" x="813" y="50"/><text fill="#000000" font-family="sans-serif" font-size="14" lengthAdjust="spacing" textLength="127" x="820" y="70.5352">OutboundReceiver</text><rect fill="#E2E2F0" height="30.4883" rx="2.5" ry="2.5" style="stroke:#181818;stroke-width:0.5;" width="141" x="813" y="443.9043"/><text fill="#000000" font-family="sans-serif" font-size="14" lengthAdjust="spacing" textLength="127" x="820" y="464.4395">OutboundReceiver</text><rect fill="#E2E2F0" height="30.4883" rx="2.5" ry="2.5" style="stroke:#181818;stroke-width:0.5;" width="103" x="964" y="50"/><text fill="#000000" font-family="sans-serif" font-size="14" lengthAdjust="spacing" textLength="89" x="971" y="70.5352">OutputBuffer</text><rect fill="#E2E2F0" height="30.4883" rx="2.5" ry="2.5" style="stroke:#181818;stroke-width:0.5;" width="103" x="964" y="443.9043"/><text fill="#000000" font-family="sans-serif" font-size="14" lengthAdjust="spacing" textLength="89" x="971" y="464.4395">OutputBuffer</text><path d="M10,98.4883 L139,98.4883 L139,105.7988 L129,115.7988 L10,115.7988 L10,98.4883 " fill="#EEEEEE" style="stroke:#000000;stroke-width:1.5;"/><rect fill="none" height="88.9316" style="stroke:#000000;stroke-width:1.5;" width="301" x="10" y="98.4883"/><text fill="#000000" font-family="sans-serif" font-size="13" font-weight="bold" lengthAdjust="spacing" textLength="84" x="25" y="112.0566">Pipeline &#21551;&#21160;</text><line style="stroke:#181818;stroke-width:1.0;" x1="56.5" x2="98.5" y1="137.1094" y2="137.1094"/><line style="stroke:#181818;stroke-width:1.0;" x1="98.5" x2="98.5" y1="137.1094" y2="150.1094"/><line style="stroke:#181818;stroke-width:1.0;" x1="57.5" x2="98.5" y1="150.1094" y2="150.1094"/><polygon fill="#181818" points="67.5,146.1094,57.5,150.1094,67.5,154.1094,63.5,150.1094" style="stroke:#181818;stroke-width:1.0;"/><text fill="#000000" font-family="sans-serif" font-size="13" lengthAdjust="spacing" textLength="90" x="63.5" y="132.3672">write message</text><polygon fill="#181818" points="190,175.4199,200,179.4199,190,183.4199,194,179.4199" style="stroke:#181818;stroke-width:1.0;"/><line style="stroke:#181818;stroke-width:1.0;" x1="56.5" x2="196" y1="179.4199" y2="179.4199"/><text fill="#000000" font-family="sans-serif" font-size="13" lengthAdjust="spacing" textLength="42" x="63.5" y="174.6777">output</text><path d="M93,201.4199 L282,201.4199 L282,208.7305 L272,218.7305 L93,218.7305 L93,201.4199 " fill="#EEEEEE" style="stroke:#000000;stroke-width:1.5;"/><rect fill="none" height="75.9316" style="stroke:#000000;stroke-width:1.5;" width="572" x="93" y="201.4199"/><text fill="#000000" font-family="sans-serif" font-size="13" font-weight="bold" lengthAdjust="spacing" textLength="140" x="108" y="214.9883">&#25191;&#34892;&#24403;&#21069; Pipeline &#29615;&#33410;</text><text fill="#000000" font-family="sans-serif" font-size="11" font-weight="bold" lengthAdjust="spacing" textLength="301" x="297" y="214.0547">[Pipeline &#20013;&#30340;&#27599;&#20010; ChannelHandler &#37117;&#20250;&#22686;&#21152;&#20013;&#38388;&#29615;&#33410;&#25968; ]</text><polygon fill="#181818" points="403.5,236.041,413.5,240.041,403.5,244.041,407.5,240.041" style="stroke:#181818;stroke-width:1.0;"/><line style="stroke:#181818;stroke-width:1.0;" x1="202" x2="409.5" y1="240.041" y2="240.041"/><text fill="#000000" font-family="sans-serif" font-size="13" lengthAdjust="spacing" textLength="42" x="209" y="235.2988">invoke</text><polygon fill="#181818" points="580.5,265.3516,590.5,269.3516,580.5,273.3516,584.5,269.3516" style="stroke:#181818;stroke-width:1.0;"/><line style="stroke:#181818;stroke-width:1.0;" x1="415.5" x2="586.5" y1="269.3516" y2="269.3516"/><text fill="#000000" font-family="sans-serif" font-size="13" lengthAdjust="spacing" textLength="48" x="422.5" y="264.6094">onWrite</text><path d="M520,291.3516 L731,291.3516 L731,298.6621 L721,308.6621 L520,308.6621 L520,291.3516 " fill="#EEEEEE" style="stroke:#000000;stroke-width:1.5;"/><rect fill="none" height="46.6211" style="stroke:#000000;stroke-width:1.5;" width="293" x="520" y="291.3516"/><text fill="#000000" font-family="sans-serif" font-size="13" font-weight="bold" lengthAdjust="spacing" textLength="166" x="535" y="304.9199">&#36716;&#31227;&#21040;&#19979;&#19968;&#20010; Pipeline &#29615;&#33410;</text><polygon fill="#181818" points="722,325.9727,732,329.9727,722,333.9727,726,329.9727" style="stroke:#181818;stroke-width:1.0;"/><line style="stroke:#181818;stroke-width:1.0;" x1="592.5" x2="728" y1="329.9727" y2="329.9727"/><text fill="#000000" font-family="sans-serif" font-size="13" lengthAdjust="spacing" textLength="28" x="599.5" y="325.2305">next</text><path d="M655,351.9727 L784,351.9727 L784,359.2832 L774,369.2832 L655,369.2832 L655,351.9727 " fill="#EEEEEE" style="stroke:#000000;stroke-width:1.5;"/><rect fill="none" height="75.9316" style="stroke:#000000;stroke-width:1.5;" width="422" x="655" y="351.9727"/><text fill="#000000" font-family="sans-serif" font-size="13" font-weight="bold" lengthAdjust="spacing" textLength="84" x="670" y="365.541">Pipeline &#25910;&#23614;</text><polygon fill="#181818" points="871.5,386.5938,881.5,390.5938,871.5,394.5938,875.5,390.5938" style="stroke:#181818;stroke-width:1.0;"/><line style="stroke:#181818;stroke-width:1.0;" x1="734" x2="877.5" y1="390.5938" y2="390.5938"/><text fill="#000000" font-family="sans-serif" font-size="13" lengthAdjust="spacing" textLength="42" x="741" y="385.8516">invoke</text><polygon fill="#181818" points="1003.5,415.9043,1013.5,419.9043,1003.5,423.9043,1007.5,419.9043" style="stroke:#181818;stroke-width:1.0;"/><line style="stroke:#181818;stroke-width:1.0;" x1="883.5" x2="1009.5" y1="419.9043" y2="419.9043"/><text fill="#000000" font-family="sans-serif" font-size="13" lengthAdjust="spacing" textLength="31" x="890.5" y="415.1621">write</text><!--SRC=[RP2zJiD048JxUufLUalvBoXS00LK81eAH77Oc-H4kBFiSw14G472hmG8AGK2cY04IWg4B45u6f-Jl0Lsa1CkIZlxpUpiKaiA5x90FSZu7hfW2HipnA6kP1PpA9UG6m-NQfHphAzGRjVHNMQUGwLLGrTdysDspPSxmkVsEdEmpZYkyeQmg6I2wtHXJh9E5EVcwKn9OpRGGjQOpIcdZEFBHRzIIUQawWhVWJGKr7LNjLu8oHfc5XPWtsKIOGyzZrOn4NEnACO91BcTsgDcP_XqhletgdanpHfSTeUj8zYQ267mFcYVHDshC7W5_M8O7VV3xxPwVb2jnvWRtN_ysQEx7coJd67cuyqi_k4kahnX5f8UV3Efzx_8iFysw7ofqruOd8N1OR9dfWuf66OnDdCyq4wOOD7jf-hzaA9XbgORISamo-a_4jil]--></g></svg>