<?xml version="1.0" encoding="us-ascii" standalone="no"?><svg xmlns="http://www.w3.org/2000/svg" xmlns:xlink="http://www.w3.org/1999/xlink" contentStyleType="text/css" height="235px" preserveAspectRatio="none" style="width:403px;height:235px;background:#FFFFFF;" version="1.1" viewBox="0 0 403 235" width="403px" zoomAndPan="magnify"><defs/><g><rect fill="#FFFFFF" height="71.6211" style="stroke:#181818;stroke-width:1.0;" width="10" x="110" y="67.7988"/><rect fill="#FFFFFF" height="35.3105" style="stroke:#181818;stroke-width:1.0;" width="10" x="273" y="139.4199"/><line style="stroke:#181818;stroke-width:0.5;stroke-dasharray:5.0,5.0;" x1="114.5" x2="114.5" y1="36.4883" y2="199.7305"/><line style="stroke:#181818;stroke-width:0.5;stroke-dasharray:5.0,5.0;" x1="278" x2="278" y1="36.4883" y2="199.7305"/><rect fill="#E2E2F0" height="30.4883" rx="2.5" ry="2.5" style="stroke:#181818;stroke-width:0.5;" width="105" x="62.5" y="5"/><text fill="#000000" font-family="sans-serif" font-size="14" lengthAdjust="spacing" textLength="91" x="69.5" y="25.5352">TimeDecoder</text><rect fill="#E2E2F0" height="30.4883" rx="2.5" ry="2.5" style="stroke:#181818;stroke-width:0.5;" width="105" x="62.5" y="198.7305"/><text fill="#000000" font-family="sans-serif" font-size="14" lengthAdjust="spacing" textLength="91" x="69.5" y="219.2656">TimeDecoder</text><rect fill="#E2E2F0" height="30.4883" rx="2.5" ry="2.5" style="stroke:#181818;stroke-width:0.5;" width="142" x="207" y="5"/><text fill="#000000" font-family="sans-serif" font-size="14" lengthAdjust="spacing" textLength="128" x="214" y="25.5352">TimeClientHandler</text><rect fill="#E2E2F0" height="30.4883" rx="2.5" ry="2.5" style="stroke:#181818;stroke-width:0.5;" width="142" x="207" y="198.7305"/><text fill="#000000" font-family="sans-serif" font-size="14" lengthAdjust="spacing" textLength="128" x="214" y="219.2656">TimeClientHandler</text><rect fill="#FFFFFF" height="71.6211" style="stroke:#181818;stroke-width:1.0;" width="10" x="110" y="67.7988"/><rect fill="#FFFFFF" height="35.3105" style="stroke:#181818;stroke-width:1.0;" width="10" x="273" y="139.4199"/><polygon fill="#181818" points="98,63.7988,108,67.7988,98,71.7988,102,67.7988" style="stroke:#181818;stroke-width:1.0;"/><line style="stroke:#181818;stroke-width:1.0;stroke-dasharray:2.0,2.0;" x1="0" x2="104" y1="67.7988" y2="67.7988"/><text fill="#000000" font-family="sans-serif" font-size="13" lengthAdjust="spacing" textLength="91" x="7" y="63.0566">readable event</text><line style="stroke:#181818;stroke-width:1.0;" x1="120" x2="162" y1="97.1094" y2="97.1094"/><line style="stroke:#181818;stroke-width:1.0;" x1="162" x2="162" y1="97.1094" y2="110.1094"/><line style="stroke:#181818;stroke-width:1.0;" x1="121" x2="162" y1="110.1094" y2="110.1094"/><polygon fill="#181818" points="131,106.1094,121,110.1094,131,114.1094,127,110.1094" style="stroke:#181818;stroke-width:1.0;"/><text fill="#000000" font-family="sans-serif" font-size="13" lengthAdjust="spacing" textLength="139" x="127" y="92.3672">decode as Date object</text><polygon fill="#181818" points="261,135.4199,271,139.4199,261,143.4199,265,139.4199" style="stroke:#181818;stroke-width:1.0;"/><line style="stroke:#181818;stroke-width:1.0;" x1="115" x2="267" y1="139.4199" y2="139.4199"/><text fill="#000000" font-family="sans-serif" font-size="13" lengthAdjust="spacing" textLength="105" x="122" y="134.6777">pass Date object</text><line style="stroke:#181818;stroke-width:1.0;" x1="283" x2="325" y1="173.7305" y2="173.7305"/><line style="stroke:#181818;stroke-width:1.0;" x1="325" x2="325" y1="173.7305" y2="186.7305"/><line style="stroke:#181818;stroke-width:1.0;" x1="278" x2="325" y1="186.7305" y2="186.7305"/><polygon fill="#181818" points="288,182.7305,278,186.7305,288,190.7305,284,186.7305" style="stroke:#181818;stroke-width:1.0;"/><text fill="#000000" font-family="sans-serif" font-size="13" lengthAdjust="spacing" textLength="106" x="290" y="168.9883">print Date object</text><!--SRC=[LSsn3eCm30JGFLzXiQ98oTgXInduW6wTJ7A3gn2Y4F7zc0mLNU_TsOLhao25SoD7lDFmbXKJmXPH1rDkx7_yIeBSPiunNINpiVRfnf4ULC6HbmJ2eGtZDDSqzdFNVE86sfOlGaTlRPyLtl_DTrEeefzlSW80]--></g></svg>